<?xml version="1.0" standalone="no"?>
<!DOCTYPE svg PUBLIC "-//W3C//DTD SVG 20010904//EN"
 "http://www.w3.org/TR/2001/REC-SVG-20010904/DTD/svg10.dtd">
<svg version="1.0" xmlns="http://www.w3.org/2000/svg"
 width="252.000000pt" height="200.000000pt" viewBox="0 0 252.000000 200.000000"
 preserveAspectRatio="xMidYMid meet">
<metadata>
Created by potrace 1.15, written by Peter Selinger 2001-2017
</metadata>
<g transform="translate(0.000000,200.000000) scale(0.100000,-0.100000)"
fill="#000000" stroke="none">
<path d="M1930 1971 c-83 -33 -127 -60 -174 -107 -83 -85 -123 -208 -111 -342
5 -50 2 -82 -8 -114 -16 -47 -15 -121 4 -236 11 -72 7 -83 -47 -108 -19 -9
-63 -54 -104 -104 -72 -91 -155 -170 -178 -170 -7 0 -34 -11 -61 -25 -66 -33
-248 -70 -267 -54 -32 27 -9 229 26 229 12 0 110 131 110 147 0 19 -10 16 -31
-9 -11 -11 -19 -16 -19 -11 0 6 -7 14 -16 17 -12 4 -15 2 -11 -9 8 -19 -53
-31 -82 -16 -26 14 -47 89 -55 193 -5 73 -4 78 14 78 11 0 38 10 60 21 22 12
49 19 60 16 12 -3 17 -1 14 5 -10 16 -105 6 -172 -18 -75 -26 -108 -54 -121
-101 -6 -20 -8 -156 -5 -323 l6 -288 -23 -15 c-12 -9 -47 -24 -78 -33 -31 -9
-82 -25 -113 -35 -35 -12 -87 -19 -132 -19 -67 0 -85 4 -160 40 -46 22 -95 40
-108 40 -13 0 -45 -19 -74 -45 -50 -43 -52 -46 -56 -107 -3 -35 -3 -69 0 -75
6 -17 80 -37 95 -25 29 21 95 32 144 23 53 -11 86 -6 118 16 25 17 109 16 214
-2 140 -25 135 -19 142 -165 3 -69 12 -151 19 -182 l13 -58 51 0 c65 0 131 11
117 19 -6 4 -12 17 -14 29 -2 12 -6 25 -10 28 -4 4 -7 28 -7 53 0 44 -18 97
-21 61 0 -8 -5 -2 -11 14 l-11 29 -13 -24 -12 -24 -6 25 c-2 14 -7 47 -10 74
-4 27 -13 61 -22 74 -9 13 -11 21 -5 18 8 -5 11 17 11 71 1 76 27 231 48 285
15 35 26 155 23 245 -2 68 11 105 22 62 3 -12 22 -26 47 -36 29 -12 39 -21 35
-31 -3 -9 0 -19 7 -24 10 -6 10 -8 1 -8 -7 0 -10 -7 -6 -17 4 -9 2 -14 -4 -10
-13 8 -19 -72 -13 -203 1 -30 7 -70 13 -88 8 -24 8 -38 0 -50 -8 -13 -7 -22 2
-35 7 -10 15 -39 19 -66 3 -26 18 -72 32 -102 28 -57 32 -82 33 -231 1 -83 3
-98 17 -98 22 0 64 41 64 62 0 22 31 88 41 88 4 0 28 20 53 45 26 25 53 45 61
45 8 0 20 9 27 20 7 11 16 20 21 20 4 0 18 12 30 26 14 16 38 29 66 34 77 14
85 7 106 -107 3 -17 13 -34 22 -37 12 -5 14 -15 10 -41 -4 -26 -2 -35 9 -35 8
0 14 -9 14 -20 0 -11 4 -20 10 -20 5 0 19 -18 30 -40 11 -22 26 -40 33 -40 8
0 7 -3 -2 -9 -27 -17 27 -21 380 -25 l347 -4 26 67 c35 89 45 161 47 321 3
189 -12 269 -73 390 -57 115 -61 151 -32 317 4 18 3 41 -1 50 -14 34 -3 104
26 161 16 31 29 64 29 73 0 8 4 19 10 25 5 5 16 30 24 54 8 25 24 70 36 100
17 42 22 77 23 150 2 150 -19 174 -198 232 -121 39 -116 38 -240 43 -79 3
-109 0 -145 -14z m-5 -377 c50 -15 106 -28 125 -29 69 -3 105 -30 80 -59 -7
-9 3 -23 33 -48 31 -26 45 -47 55 -83 12 -45 14 -47 27 -29 14 18 16 18 39 -8
13 -14 34 -28 47 -30 33 -4 35 -33 4 -64 -21 -20 -34 -25 -61 -22 -23 3 -34 0
-34 -9 0 -9 11 -11 38 -8 38 5 39 4 36 -28 -1 -17 -4 -39 -6 -47 -6 -21 -47
-100 -69 -132 -11 -14 -19 -32 -19 -39 0 -7 -8 -21 -17 -32 -18 -19 -17 -20
15 -15 29 4 35 1 48 -23 8 -16 26 -32 39 -35 14 -3 25 -13 25 -21 0 -8 6 -27
14 -41 8 -15 17 -36 21 -47 5 -15 8 -16 14 -6 10 16 24 -20 23 -62 0 -17 3
-25 10 -21 7 5 9 1 5 -9 -3 -9 -2 -19 4 -23 5 -3 7 -14 4 -25 -4 -11 -2 -19 4
-19 6 0 11 -11 11 -24 0 -14 5 -28 10 -31 12 -8 13 -42 1 -49 -4 -3 -6 7 -3
22 3 15 2 25 -1 22 -3 -3 -9 -24 -12 -45 -3 -22 -7 -49 -9 -60 -2 -11 -4 -38
-5 -60 -2 -32 -4 -36 -11 -20 -6 14 -9 4 -9 -37 -1 -32 3 -58 9 -58 5 0 -8
-18 -30 -40 -22 -22 -44 -40 -50 -40 -5 0 -10 -4 -10 -8 0 -5 -6 -9 -12 -10
-67 -9 -187 -31 -203 -37 -11 -5 -23 -13 -27 -19 -10 -15 -220 -15 -239 0 -8
6 -27 14 -44 18 -74 18 -195 96 -195 126 0 4 -5 10 -11 12 -15 5 7 85 32 116
10 14 19 30 19 36 0 6 15 27 34 46 18 19 36 45 40 57 4 12 16 25 27 28 10 4
19 12 20 18 1 23 69 69 134 92 35 12 62 25 58 29 -13 13 -148 6 -178 -10 -27
-14 -32 -13 -62 3 -18 10 -33 23 -33 29 0 7 21 23 48 35 38 19 62 23 126 22
63 -1 82 2 91 14 9 12 29 16 74 16 33 0 61 4 61 9 0 4 5 8 10 8 6 0 10 -9 10
-20 0 -11 -4 -20 -8 -20 -4 0 -13 -14 -19 -30 -9 -24 -8 -36 3 -59 27 -54 40
-57 80 -17 33 33 36 41 35 91 0 69 -4 76 -42 68 l-31 -6 2 44 c2 24 -1 51 -4
60 -7 15 18 70 48 109 32 42 46 82 46 133 0 35 5 57 13 60 6 3 8 6 2 6 -18 1
-31 -14 -41 -47 -5 -19 -13 -33 -18 -32 -5 1 -12 -2 -15 -7 -3 -5 -35 -17 -71
-27 -83 -23 -110 -36 -110 -52 0 -7 -9 -18 -19 -24 -11 -5 -23 -20 -27 -32
-11 -36 -35 -47 -96 -48 -48 0 -59 3 -68 20 -9 17 -7 26 14 51 14 17 26 34 26
38 0 3 -19 13 -42 21 -86 31 -74 79 21 81 l56 1 -45 10 c-74 16 -71 14 -58 43
11 24 9 28 -17 50 -29 22 -29 24 -16 61 7 22 26 60 42 85 42 66 40 112 -7 160
-34 35 -35 37 -18 54 23 23 86 16 209 -21z m-657 -1170 c2 -16 -12 -35 -54
-70 -31 -27 -68 -59 -81 -71 -31 -30 -33 -29 -33 10 0 33 38 103 74 140 27 26
90 20 94 -9z"/>
<path d="M1867 1553 c-24 -4 -28 -8 -22 -26 6 -20 11 -47 14 -89 2 -28 30 -48
67 -48 31 0 35 3 29 20 -4 13 -2 21 7 22 7 0 18 2 23 3 6 2 16 3 23 4 20 2 3
21 -19 21 -10 0 -24 9 -31 20 -7 11 -19 20 -26 20 -7 0 -10 5 -7 10 3 6 23 10
43 10 36 0 36 0 14 16 -25 17 -72 24 -115 17z"/>
</g>
</svg>
